# xmcd
#
# Track frame offsets: 
#        150
#        20552
#        30597
#        45585
#        60432
#        73322
#        91642
#        99965
#        118035
#        144577
#        156327
#        176497
#        195862
#        216892
#        228280
#
# Disc length: 3327 seconds
#
# Revision: 1
# Processed by: cddbd v1.5.2PL0 Copyright (c) Steve Scherf et al.
# Submitted via: ExactAudioCopyFreeDBPlugin 1.0
#
DISCID=c00cfd0f
DTITLE=Various Artist - The Best Of American Folk Blues Festivals 1963-1966 (
DTITLE=Disc 2)
DYEAR=1900
DGENRE=Blues
TTITLE0=Buddy Guy - First Time I Met The Blues
TTITLE1=Lonesome Jimmy Lee - Rosalie
TTITLE2=Big Mama Thornton - Hound Dog
TTITLE3=Eddie Boyd - Five Long Years
TTITLE4=Eddie Boyd - The Big Question
TTITLE5=Big Walter - Christine
TTITLE6=J.B. Lenoir - Slow Down
TTITLE7=Otis Rush - All Your Love
TTITLE8=Otis Rush - My Own Fault
TTITLE9=Jr. Wells - Checkin' On My Baby
TTITLE10=Jr. Wells - A Tribute To Sonny Boy Williamson
TTITLE11=Jr. Wells - Vietnam Blues
TTITLE12=Joe Turner - Flip, Flop, And Fly
TTITLE13=Joe Turner - Roll 'Em Pete
TTITLE14=Little Brother Montgomery - I Keep On Drinking
EXTD=
EXTT0=
EXTT1=
EXTT2=
EXTT3=
EXTT4=
EXTT5=
EXTT6=
EXTT7=
EXTT8=
EXTT9=
EXTT10=
EXTT11=
EXTT12=
EXTT13=
EXTT14=
PLAYORDER=
